<?xml version="1.0" encoding="UTF-8"?>
<!-- Created with Inkscape (http://www.inkscape.org/) -->
<svg width="144.7mm" height="38.296mm" version="1.1" viewBox="7 0 137.7 36.443" xmlns="http://www.w3.org/2000/svg">
 <g transform="translate(34.28 -53.416)">
  <g transform="matrix(.35278 0 0 -.35278 -235.87 273.02)">
   <g transform="scale(1,-1)" stroke-width="1.3685px" aria-label="PeaceFounder">
    <g>
     <g transform="matrix(0 -.32956 .32956 0 573.18 -550.24)" fill="#525252" stroke="#fff" stroke-width="9.199">
      <g transform="rotate(45 412.31 -40.857)" fill="#525252" stroke="#fff" stroke-miterlimit="10" stroke-width="9.199">
       <path d="m311.21 313.79h50c27.613 0 50-22.387 50-50h-100v50"/>
       <path d="m261.21 363.79h50c27.613 0 50-22.387 50-50h-100v50"/>
       <path d="m211.21 413.79h50c27.613 0 50-22.387 50-50h-100v50"/>
       <path d="m161.21 413.79h50v-100c-27.613 0-50 22.387-50 50v50"/>
       <path d="m211.21 363.79h50v-100c-27.613 0-50 22.387-50 50v50"/>
       <path d="m261.21 313.79h50v-50h-50v50"/>
      </g>
     </g>
     <g transform="matrix(.20211 0 0 .20211 24.192 -3216)" fill="#313131" opacity=".90498" stroke-dasharray="5.07226, 5.07226" stroke-width="5.0723" aria-label="PeaceFounder">
      <path d="m3138.2 12996h-52.107c-6.2628 0-9.0185 2.755-9.0185 9.018v159.83c0 4.509 4.0082 7.014 13.277 7.014h6.0124c9.269 0 13.277-2.505 13.277-7.014v-62.379h31.064c13.277 0 55.614-6.262 55.614-53.61 0-46.345-36.074-52.858-58.119-52.858zm-1.5031 27.807c11.524 0 26.304 4.509 26.304 25.051 0 21.294-15.282 25.553-25.052 25.553h-28.308v-50.604z"/>
      <path d="m3272.7 13039c-36.575 0-59.873 20.542-59.873 68.14 0 42.087 20.041 66.387 63.881 66.387 18.288 0 45.093-7.015 45.093-17.286 0-4.259-6.7639-16.534-11.524-16.534-3.0062 0-14.53 8.768-32.567 8.768-19.29 0-30.563-8.517-32.316-31.565h69.393c3.2567 0 11.273-9.269 11.273-13.027 0-37.577-15.782-64.883-53.36-64.883zm-0.2505 25.052c15.281 0 22.546 11.774 22.546 30.562h-49.602c2.5052-21.794 12.526-30.562 27.056-30.562z"/>
      <path d="m3402.4 13039c-26.805 0-47.598 9.019-47.598 16.785 0 4.258 6.7639 17.285 11.524 17.285 2.7556 0 14.53-9.018 34.571-9.018 16.284 0 22.296 6.763 22.296 16.784v9.52c-54.362 0.25-75.906 17.786-75.906 46.345 0 22.296 13.027 36.826 39.08 36.826 21.544 0 34.32-13.027 38.83-18.789 1.5031 6.764 2.2546 17.286 9.5195 17.286 5.2609 0 22.797-1.754 22.797-7.265 0-3.758-3.0062-10.522-3.0062-34.571v-50.354c0-24.55-15.782-40.834-52.107-40.834zm20.793 73.401v19.54c-6.2629 9.019-16.033 16.284-28.559 16.284-10.522 0-15.782-5.512-15.782-14.53 0-17.035 19.791-21.044 44.341-21.294z"/>
      <path d="m3546.7 13039c-39.08 0-62.629 20.292-62.629 67.639 0 46.095 20.542 66.888 62.629 66.888 13.027 0 42.086-4.76 42.086-15.783 0-4.509-6.5134-16.784-11.273-16.784-0.7515 0-2.0041 0.751-4.0082 1.503-4.5093 2.254-13.277 6.012-25.803 6.012-22.546 0-31.314-13.528-31.314-42.587 0-29.06 10.522-41.836 31.314-41.836 11.524 0 19.29 3.507 23.799 5.761 1.7536 0.752 3.0062 1.503 4.0082 1.503 3.7577 0 11.273-12.776 11.273-17.285 0-9.52-21.795-15.031-40.082-15.031z"/>
      <path d="m3665.7 13039c-36.575 0-59.873 20.542-59.873 68.14 0 42.087 20.041 66.387 63.881 66.387 18.288 0 45.093-7.015 45.093-17.286 0-4.259-6.7639-16.534-11.524-16.534-3.0062 0-14.53 8.768-32.567 8.768-19.29 0-30.563-8.517-32.316-31.565h69.393c3.2567 0 11.273-9.269 11.273-13.027 0-37.577-15.782-64.883-53.36-64.883zm-0.2506 25.052c15.282 0 22.546 11.774 22.546 30.562h-49.602c2.5052-21.794 12.526-30.562 27.056-30.562z"/>
      <path d="m3839.8 12996h-81.918c-6.2629 0-9.0185 2.755-9.0185 9.018v159.83c0 4.509 4.0082 7.014 13.277 7.014h6.0123c9.2691 0 13.277-2.505 13.277-7.014v-69.143h55.614c4.7597 0 6.7639-3.256 6.7639-10.772v-6.263c0-7.515-2.0042-10.772-6.7639-10.772h-55.614v-44.09h58.37c4.7598 0 6.7639-3.257 6.7639-10.772v-6.263c0-7.516-2.0041-10.772-6.7639-10.772z"/>
      <path d="m3926.8 13039c-38.83 0-59.873 23.799-59.873 67.389 0 43.339 20.793 67.138 59.873 67.138 38.83 0 59.372-23.549 59.372-67.138 0-43.59-20.542-67.389-59.372-67.389zm-0.501 25.052c19.29 0 27.807 14.028 27.807 42.086s-8.5175 42.337-27.807 42.337c-19.039 0-27.557-14.279-27.557-42.337s8.5175-42.086 27.557-42.086z"/>
      <path d="m4106.4 13040h-5.0103c-9.0185 0-13.027 2.505-13.027 7.014v84.674c-5.0103 7.516-13.778 15.532-24.3 15.532-13.027 0-18.789-7.014-18.789-18.789v-81.417c0-4.509-4.0083-7.014-13.277-7.014h-4.7598c-9.2691 0-13.277 2.505-13.277 7.014v85.676c0 27.056 13.027 40.584 38.329 40.584 15.532 0 29.561-8.518 37.828-18.789 1.5031 6.764 2.2547 17.286 9.7701 17.286 5.0103 0 22.546-1.754 22.546-7.265 0-3.758-3.0062-10.522-3.0062-34.571v-82.921c0-4.509-3.7577-7.014-13.027-7.014z"/>
      <path d="m4222.4 13039c-15.532 0-29.561 8.518-38.078 18.789-1.503-6.263-2.2546-16.284-9.5195-16.284-5.2608 0-22.797 1.754-22.797 7.265 0 3.507 3.0062 10.522 3.0062 33.82v82.67c0 4.509 4.0082 7.014 13.277 7.014h4.7598c9.269 0 13.277-2.505 13.277-7.014v-84.674c4.7598-7.516 13.528-15.532 24.049-15.532 13.027 0 19.039 7.014 19.039 18.788v81.418c0 4.509 4.0083 7.014 13.027 7.014h5.0103c9.2691 0 13.027-2.505 13.027-7.014v-85.677c0-27.055-13.027-40.583-38.078-40.583z"/>
      <path d="m4387.7 12983h-4.7598c-9.269 0-13.277 2.505-13.277 7.015v58.37c-7.0144-5.011-16.033-9.52-29.31-9.52-32.316 0-52.107 25.302-52.107 67.138s19.29 67.389 47.598 67.389c15.031 0 27.557-7.265 35.824-18.789 1.503 6.764 2.2546 17.286 9.5195 17.286 5.0103 0 22.797-1.754 22.797-7.265 0-3.758-3.0062-10.522-3.0062-34.571v-140.04c0-4.51-4.0082-7.015-13.277-7.015zm-40.583 81.167c9.0185 0 16.534 3.006 22.546 7.265v60.374c-6.7639 9.019-15.532 15.783-25.552 15.783-15.782 0-24.049-15.031-24.049-42.337 0-26.555 8.768-40.834 27.056-41.085z"/>
      <path d="m4489.9 13039c-36.575 0-59.873 20.542-59.873 68.14 0 42.087 20.041 66.387 63.881 66.387 18.288 0 45.093-7.015 45.093-17.286 0-4.259-6.7639-16.534-11.524-16.534-3.0062 0-14.53 8.768-32.567 8.768-19.29 0-30.563-8.517-32.316-31.565h69.393c3.2567 0 11.273-9.269 11.273-13.027 0-37.577-15.782-64.883-53.36-64.883zm-0.2505 25.052c15.281 0 22.546 11.774 22.546 30.562h-49.602c2.5051-21.794 12.526-30.562 27.056-30.562z"/>
      <path d="m4628.7 13039c-13.277 0-21.544 8.518-28.058 18.789-1.5031-6.263-2.2546-16.284-9.5195-16.284-5.2609 0-22.797 1.754-22.797 7.265 0 3.507 3.0062 10.522 3.0062 33.82v82.67c0 4.509 4.0082 7.014 13.277 7.014h4.7597c9.2691 0 13.277-2.505 13.277-7.014v-84.674c1.7536-3.007 9.7701-13.528 21.043-13.528 6.2629 0 9.0185 2.254 12.526 2.254 4.2587 0 6.7639-13.527 6.7639-18.287 0-5.011-3.0062-12.025-14.279-12.025z"/>
     </g>
     <rect x="585.31" y="-411.93" width="404.79" height="103.18" ry=".0042549" fill="#313131" stroke="#313131" stroke-width="5.3754"/>
     <g transform="matrix(0 -.32956 .32956 0 584.37 -342.37)" fill="#e3dbde" stroke="#313131" stroke-width="9.199">
      <g transform="rotate(45 412.31 -40.857)" fill="#e3dbde" stroke="#313131" stroke-miterlimit="10" stroke-width="9.199">
       <path d="m311.21 313.79h50c27.613 0 50-22.387 50-50h-100v50"/>
       <path d="m261.21 363.79h50c27.613 0 50-22.387 50-50h-100v50"/>
       <path d="m211.21 413.79h50c27.613 0 50-22.387 50-50h-100v50"/>
       <path d="m161.21 413.79h50v-100c-27.613 0-50 22.387-50 50v50"/>
       <path d="m211.21 363.79h50v-100c-27.613 0-50 22.387-50 50v50"/>
       <path d="m261.21 313.79h50v-50h-50v50"/>
      </g>
     </g>
    </g>
    <g transform="matrix(.20211 0 0 .20211 35.382 -3008.1)" fill="#e3dbde" opacity=".90498" stroke-dasharray="5.07226, 5.07226" stroke-width="5.0723" aria-label="PeaceFounder">
     <path d="m3138.2 12996h-52.107c-6.2628 0-9.0185 2.755-9.0185 9.018v159.83c0 4.509 4.0082 7.014 13.277 7.014h6.0124c9.269 0 13.277-2.505 13.277-7.014v-62.379h31.064c13.277 0 55.614-6.262 55.614-53.61 0-46.345-36.074-52.858-58.119-52.858zm-1.5031 27.807c11.524 0 26.304 4.509 26.304 25.051 0 21.294-15.282 25.553-25.052 25.553h-28.308v-50.604z"/>
     <path d="m3272.7 13039c-36.575 0-59.873 20.542-59.873 68.14 0 42.087 20.041 66.387 63.881 66.387 18.288 0 45.093-7.015 45.093-17.286 0-4.259-6.7639-16.534-11.524-16.534-3.0062 0-14.53 8.768-32.567 8.768-19.29 0-30.563-8.517-32.316-31.565h69.393c3.2567 0 11.273-9.269 11.273-13.027 0-37.577-15.782-64.883-53.36-64.883zm-0.2505 25.052c15.281 0 22.546 11.774 22.546 30.562h-49.602c2.5052-21.794 12.526-30.562 27.056-30.562z"/>
     <path d="m3402.4 13039c-26.805 0-47.598 9.019-47.598 16.785 0 4.258 6.7639 17.285 11.524 17.285 2.7556 0 14.53-9.018 34.571-9.018 16.284 0 22.296 6.763 22.296 16.784v9.52c-54.362 0.25-75.906 17.786-75.906 46.345 0 22.296 13.027 36.826 39.08 36.826 21.544 0 34.32-13.027 38.83-18.789 1.5031 6.764 2.2546 17.286 9.5195 17.286 5.2609 0 22.797-1.754 22.797-7.265 0-3.758-3.0062-10.522-3.0062-34.571v-50.354c0-24.55-15.782-40.834-52.107-40.834zm20.793 73.401v19.54c-6.2629 9.019-16.033 16.284-28.559 16.284-10.522 0-15.782-5.512-15.782-14.53 0-17.035 19.791-21.044 44.341-21.294z"/>
     <path d="m3546.7 13039c-39.08 0-62.629 20.292-62.629 67.639 0 46.095 20.542 66.888 62.629 66.888 13.027 0 42.086-4.76 42.086-15.783 0-4.509-6.5134-16.784-11.273-16.784-0.7515 0-2.0041 0.751-4.0082 1.503-4.5093 2.254-13.277 6.012-25.803 6.012-22.546 0-31.314-13.528-31.314-42.587 0-29.06 10.522-41.836 31.314-41.836 11.524 0 19.29 3.507 23.799 5.761 1.7536 0.752 3.0062 1.503 4.0082 1.503 3.7577 0 11.273-12.776 11.273-17.285 0-9.52-21.795-15.031-40.082-15.031z"/>
     <path d="m3665.7 13039c-36.575 0-59.873 20.542-59.873 68.14 0 42.087 20.041 66.387 63.881 66.387 18.288 0 45.093-7.015 45.093-17.286 0-4.259-6.7639-16.534-11.524-16.534-3.0062 0-14.53 8.768-32.567 8.768-19.29 0-30.563-8.517-32.316-31.565h69.393c3.2567 0 11.273-9.269 11.273-13.027 0-37.577-15.782-64.883-53.36-64.883zm-0.2506 25.052c15.282 0 22.546 11.774 22.546 30.562h-49.602c2.5052-21.794 12.526-30.562 27.056-30.562z"/>
     <path d="m3839.8 12996h-81.918c-6.2629 0-9.0185 2.755-9.0185 9.018v159.83c0 4.509 4.0082 7.014 13.277 7.014h6.0123c9.2691 0 13.277-2.505 13.277-7.014v-69.143h55.614c4.7597 0 6.7639-3.256 6.7639-10.772v-6.263c0-7.515-2.0042-10.772-6.7639-10.772h-55.614v-44.09h58.37c4.7598 0 6.7639-3.257 6.7639-10.772v-6.263c0-7.516-2.0041-10.772-6.7639-10.772z"/>
     <path d="m3926.8 13039c-38.83 0-59.873 23.799-59.873 67.389 0 43.339 20.793 67.138 59.873 67.138 38.83 0 59.372-23.549 59.372-67.138 0-43.59-20.542-67.389-59.372-67.389zm-0.501 25.052c19.29 0 27.807 14.028 27.807 42.086s-8.5175 42.337-27.807 42.337c-19.039 0-27.557-14.279-27.557-42.337s8.5175-42.086 27.557-42.086z"/>
     <path d="m4106.4 13040h-5.0103c-9.0185 0-13.027 2.505-13.027 7.014v84.674c-5.0103 7.516-13.778 15.532-24.3 15.532-13.027 0-18.789-7.014-18.789-18.789v-81.417c0-4.509-4.0083-7.014-13.277-7.014h-4.7598c-9.2691 0-13.277 2.505-13.277 7.014v85.676c0 27.056 13.027 40.584 38.329 40.584 15.532 0 29.561-8.518 37.828-18.789 1.5031 6.764 2.2547 17.286 9.7701 17.286 5.0103 0 22.546-1.754 22.546-7.265 0-3.758-3.0062-10.522-3.0062-34.571v-82.921c0-4.509-3.7577-7.014-13.027-7.014z"/>
     <path d="m4222.4 13039c-15.532 0-29.561 8.518-38.078 18.789-1.503-6.263-2.2546-16.284-9.5195-16.284-5.2608 0-22.797 1.754-22.797 7.265 0 3.507 3.0062 10.522 3.0062 33.82v82.67c0 4.509 4.0082 7.014 13.277 7.014h4.7598c9.269 0 13.277-2.505 13.277-7.014v-84.674c4.7598-7.516 13.528-15.532 24.049-15.532 13.027 0 19.039 7.014 19.039 18.788v81.418c0 4.509 4.0083 7.014 13.027 7.014h5.0103c9.2691 0 13.027-2.505 13.027-7.014v-85.677c0-27.055-13.027-40.583-38.078-40.583z"/>
     <path d="m4387.7 12983h-4.7598c-9.269 0-13.277 2.505-13.277 7.015v58.37c-7.0144-5.011-16.033-9.52-29.31-9.52-32.316 0-52.107 25.302-52.107 67.138s19.29 67.389 47.598 67.389c15.031 0 27.557-7.265 35.824-18.789 1.503 6.764 2.2546 17.286 9.5195 17.286 5.0103 0 22.797-1.754 22.797-7.265 0-3.758-3.0062-10.522-3.0062-34.571v-140.04c0-4.51-4.0082-7.015-13.277-7.015zm-40.583 81.167c9.0185 0 16.534 3.006 22.546 7.265v60.374c-6.7639 9.019-15.532 15.783-25.552 15.783-15.782 0-24.049-15.031-24.049-42.337 0-26.555 8.768-40.834 27.056-41.085z"/>
     <path d="m4489.9 13039c-36.575 0-59.873 20.542-59.873 68.14 0 42.087 20.041 66.387 63.881 66.387 18.288 0 45.093-7.015 45.093-17.286 0-4.259-6.7639-16.534-11.524-16.534-3.0062 0-14.53 8.768-32.567 8.768-19.29 0-30.563-8.517-32.316-31.565h69.393c3.2567 0 11.273-9.269 11.273-13.027 0-37.577-15.782-64.883-53.36-64.883zm-0.2505 25.052c15.281 0 22.546 11.774 22.546 30.562h-49.602c2.5051-21.794 12.526-30.562 27.056-30.562z"/>
     <path d="m4628.7 13039c-13.277 0-21.544 8.518-28.058 18.789-1.5031-6.263-2.2546-16.284-9.5195-16.284-5.2609 0-22.797 1.754-22.797 7.265 0 3.507 3.0062 10.522 3.0062 33.82v82.67c0 4.509 4.0082 7.014 13.277 7.014h4.7597c9.2691 0 13.277-2.505 13.277-7.014v-84.674c1.7536-3.007 9.7701-13.528 21.043-13.528 6.2629 0 9.0185 2.254 12.526 2.254 4.2587 0 6.7639-13.527 6.7639-18.287 0-5.011-3.0062-12.025-14.279-12.025z"/>
    </g>
    <g transform="translate(11.19 207.87)" fill="#d3ccce" opacity=".90498" stroke-dasharray="0.899854, 0.899854" stroke-width=".89985" aria-label="evoting for democracy">
     <path d="m716.01-544.26c-2.413 0-3.9501 1.3553-3.9501 4.4955 0 2.7766 1.3222 4.3798 4.2145 4.3798 1.2065 0 2.975-0.46277 2.975-1.1404 0-0.28097-0.44625-1.0908-0.76027-1.0908-0.19833 0-0.9586 0.57847-2.1486 0.57847-1.2726 0-2.0164-0.56194-2.1321-2.0825h4.5782c0.21485 0 0.74374-0.61152 0.74374-0.85943 0-2.4791-1.0412-4.2806-3.5204-4.2806zm-0.0165 1.6528c1.0082 0 1.4875 0.7768 1.4875 2.0164h-3.2725c0.16528-1.4379 0.82638-2.0164 1.785-2.0164z"/>
     <path d="m727.14-544.18h-0.28097c-0.42972 0-0.76027 0.0826-0.84291 0.31402l-1.2396 3.884c-0.13222 0.46277-0.33055 1.3387-0.46277 1.9998h-0.0661c-0.16528-0.66111-0.36361-1.5205-0.51236-2.0164l-1.2396-3.8675c-0.0661-0.23138-0.39666-0.31402-0.82638-0.31402h-0.38013c-0.61153 0-0.89249 0.13222-0.89249 0.33055 0 0.0826 0.0331 0.1818 0.0661 0.26444l2.6279 7.801c0.0826 0.23138 0.41319 0.31402 0.84291 0.31402h0.54541c0.41319 0 0.74374-0.0826 0.82638-0.31402l2.6444-7.7845c0.0331-0.11569 0.0496-0.19833 0.0496-0.28097 0-0.21486-0.26444-0.33055-0.85943-0.33055z"/>
     <path d="m732.94-544.26c-2.5618 0-3.9501 1.5701-3.9501 4.4459 0 2.8593 1.3718 4.4294 3.9501 4.4294 2.5618 0 3.917-1.5536 3.917-4.4294 0-2.8758-1.3553-4.4459-3.917-4.4459zm-0.0331 1.6528c1.2726 0 1.8346 0.92554 1.8346 2.7766 0 1.8511-0.56194 2.7932-1.8346 2.7932-1.2561 0-1.818-0.94207-1.818-2.7932 0-1.8511 0.56194-2.7766 1.818-2.7766z"/>
     <path d="m740.43-546.25h-0.39666c-0.46278 0-0.71069 0.16527-0.76027 0.46277l-0.19833 1.6362h-0.47931c-0.29749 0-0.42971 0.21486-0.42971 0.71069v0.24791c0 0.49583 0.13222 0.71069 0.42971 0.71069h0.47931v4.5616c0 1.8676 1.0247 2.5287 2.3139 2.5287 0.4793 0 1.4379-0.0496 1.4379-0.69416 0-0.13222-0.14875-1.0412-0.44624-1.0412-0.1157 0-0.28097 0.0826-0.54542 0.0826-0.44624 0-0.71068-0.23139-0.71068-0.90902v-4.5286h1.0247c0.31402 0 0.44624-0.21486 0.44624-0.71069v-0.24791c0-0.49583-0.13222-0.71069-0.44624-0.71069h-1.0247v-1.6362c0-0.2975-0.19833-0.46277-0.69416-0.46277z"/>
     <path d="m745.65-547.95h-0.3636c-0.61153 0-0.87597 0.16528-0.87597 0.46278v1.2065c0 0.31403 0.26444 0.46277 0.87597 0.46277h0.3636c0.61152 0 0.87597-0.14874 0.87597-0.46277v-1.2065c0-0.2975-0.26445-0.46278-0.87597-0.46278zm-0.0165 3.7683h-0.31403c-0.61152 0-0.87596 0.16527-0.87596 0.46277v7.7845c0 0.2975 0.26444 0.46277 0.87596 0.46277h0.31403c0.61152 0 0.87596-0.16527 0.87596-0.46277v-7.7845c0-0.2975-0.26444-0.46277-0.87596-0.46277z"/>
     <path d="m753.27-544.26c-1.0247 0-1.9503 0.56194-2.5122 1.2396-0.0992-0.41319-0.14875-1.0743-0.62805-1.0743-0.34708 0-1.504 0.11569-1.504 0.4793 0 0.23138 0.19833 0.69415 0.19833 2.2312v5.4541c0 0.2975 0.26444 0.46277 0.87597 0.46277h0.31402c0.61152 0 0.87596-0.16527 0.87596-0.46277v-5.5863c0.31403-0.49583 0.89249-1.0247 1.5866-1.0247 0.85944 0 1.2561 0.46277 1.2561 1.2396v5.3715c0 0.2975 0.26444 0.46277 0.85943 0.46277h0.33056c0.61152 0 0.85943-0.16527 0.85943-0.46277v-5.6524c0-1.785-0.85943-2.6775-2.5122-2.6775z"/>
     <path d="m761.25-544.26c-2.0164 0-3.4377 0.94207-3.4377 2.8428 0 1.1404 0.51236 1.9668 1.3718 2.413-0.62804 0.3636-0.97512 0.87596-0.97512 1.504 0 0.57846 0.24791 1.0247 0.69416 1.2892l-0.0165 0.0496c-0.92555 0.36361-1.504 1.0578-1.504 1.9668 0 1.504 1.3387 2.1982 3.7518 2.1982 2.5287 0 4.0823-1.0412 4.0823-2.694 0-1.6032-1.2726-2.0329-2.5452-2.2478-1.2726-0.19834-2.5122-0.19834-2.5122-0.92555 0-0.49583 0.41319-0.69416 1.2065-0.69416 1.9668 0 3.322-0.99165 3.322-2.8593 0-0.38014-0.1157-0.82638-0.31403-1.1074l0.0165-0.0496c0.21486 0.0331 0.61152 0.0661 0.87596 0.0661 0.24792 0 0.38014-0.19833 0.38014-0.67763v-0.24791c0-0.49583-0.13222-0.71069-0.44625-0.71069h-2.7766c-0.3636-0.0826-0.76027-0.11569-1.1735-0.11569zm0 1.5205c0.82638 0 1.504 0.36361 1.504 1.3387 0 0.9586-0.67764 1.3057-1.504 1.3057s-1.504-0.34708-1.504-1.3057c0-0.97512 0.67763-1.3387 1.504-1.3387zm-0.94207 7.1399c1.6528 0.23139 2.9089 0.23139 2.9089 1.0082 0 0.61153-0.61152 0.95861-1.9007 0.95861-1.1735 0-1.9668-0.26445-1.9668-0.90902 0-0.46278 0.38014-0.84291 0.9586-1.0578z"/>
     <path d="m773.63-548.05c-1.2892 0-2.3139 0.6611-2.3139 2.5452v1.3553h-0.42972c-0.29749 0-0.42971 0.21486-0.42971 0.71069v0.24791c0 0.49583 0.13222 0.71069 0.42971 0.71069h0.42972v6.5449c0 0.2975 0.26444 0.46277 0.87596 0.46277h0.31403c0.61152 0 0.87596-0.16527 0.87596-0.46277v-6.5449h1.0578c0.29749 0 0.42971-0.21486 0.42971-0.71069v-0.24791c0-0.49583-0.13222-0.71069-0.42971-0.71069h-1.0578v-1.3387c0-0.71069 0.26444-0.89249 0.71069-0.89249 0.28097 0 0.44624 0.0661 0.57846 0.0661 0.2975 0 0.44625-0.89249 0.44625-1.0247 0-0.66111-0.99166-0.71069-1.4875-0.71069z"/>
     <path d="m779.94-544.26c-2.5618 0-3.9501 1.5701-3.9501 4.4459 0 2.8593 1.3718 4.4294 3.9501 4.4294 2.5618 0 3.917-1.5536 3.917-4.4294 0-2.8758-1.3553-4.4459-3.917-4.4459zm-0.0331 1.6528c1.2726 0 1.8346 0.92554 1.8346 2.7766 0 1.8511-0.56194 2.7932-1.8346 2.7932-1.2561 0-1.818-0.94207-1.818-2.7932 0-1.8511 0.56194-2.7766 1.818-2.7766z"/>
     <path d="m789.59-544.26c-0.87596 0-1.4214 0.56194-1.8511 1.2396-0.0992-0.41319-0.14875-1.0743-0.62805-1.0743-0.34708 0-1.504 0.11569-1.504 0.4793 0 0.23138 0.19833 0.69415 0.19833 2.2312v5.4541c0 0.2975 0.26444 0.46277 0.87596 0.46277h0.31403c0.61152 0 0.87596-0.16527 0.87596-0.46277v-5.5863c0.1157-0.19833 0.64458-0.89249 1.3883-0.89249 0.41319 0 0.59499 0.14875 0.82638 0.14875 0.28097 0 0.44625-0.89249 0.44625-1.2065 0-0.33055-0.19834-0.79332-0.94208-0.79332z"/>
     <path d="m801.96-547.95h-0.31402c-0.61152 0-0.87596 0.16528-0.87596 0.46278v3.8509c-0.46278-0.33055-1.0578-0.62805-1.9337-0.62805-2.1321 0-3.4377 1.6693-3.4377 4.4294 0 2.7601 1.2726 4.4459 3.1402 4.4459 0.99166 0 1.818-0.4793 2.3634-1.2396 0.0992 0.44625 0.14874 1.1404 0.62805 1.1404 0.33055 0 1.504-0.11569 1.504-0.4793 0-0.24791-0.19833-0.69416-0.19833-2.2808v-9.2389c0-0.2975-0.26445-0.46278-0.87597-0.46278zm-2.6775 5.355c0.595 0 1.0908 0.19833 1.4875 0.4793v3.9832c-0.44625 0.59499-1.0247 1.0412-1.6858 1.0412-1.0412 0-1.5866-0.99166-1.5866-2.7932 0-1.7519 0.57847-2.694 1.785-2.7105z"/>
     <path d="m808.7-544.26c-2.413 0-3.9501 1.3553-3.9501 4.4955 0 2.7766 1.3222 4.3798 4.2145 4.3798 1.2065 0 2.975-0.46277 2.975-1.1404 0-0.28097-0.44624-1.0908-0.76027-1.0908-0.19833 0-0.9586 0.57847-2.1486 0.57847-1.2726 0-2.0164-0.56194-2.1321-2.0825h4.5782c0.21486 0 0.74374-0.61152 0.74374-0.85943 0-2.4791-1.0412-4.2806-3.5204-4.2806zm-0.0165 1.6528c1.0082 0 1.4875 0.7768 1.4875 2.0164h-3.2725c0.16528-1.4379 0.82638-2.0164 1.785-2.0164z"/>
     <path d="m823.26-544.26c-1.0743 0-2.0329 0.62805-2.5618 1.2892-0.38014-0.9586-1.2396-1.2892-2.2478-1.2892-1.0743 0-1.9668 0.61152-2.4791 1.2396-0.0992-0.41319-0.14875-1.0743-0.62805-1.0743-0.34708 0-1.504 0.11569-1.504 0.4793 0 0.23138 0.19833 0.69415 0.19833 2.2312v5.4541c0 0.2975 0.26444 0.46277 0.87597 0.46277h0.31402c0.61152 0 0.87596-0.16527 0.87596-0.46277v-5.5863c0.1157-0.24791 0.69416-1.0247 1.5536-1.0247 0.85943 0 1.2065 0.46277 1.2065 1.2396v5.3715c0 0.2975 0.26444 0.46277 0.87596 0.46277h0.31403c0.61152 0 0.87596-0.16527 0.87596-0.46277v-5.6029c0.23139-0.34708 0.74374-1.0082 1.5536-1.0082 0.8429 0 1.2065 0.46277 1.2065 1.2396v5.3715c0 0.2975 0.24791 0.46277 0.85944 0.46277h0.33055c0.61152 0 0.85943-0.16527 0.85943-0.46277v-5.6524c0-1.9833-1.0412-2.6775-2.4791-2.6775z"/>
     <path d="m831.62-544.26c-2.5618 0-3.9501 1.5701-3.9501 4.4459 0 2.8593 1.3718 4.4294 3.9501 4.4294 2.5618 0 3.917-1.5536 3.917-4.4294 0-2.8758-1.3553-4.4459-3.917-4.4459zm-0.0331 1.6528c1.2726 0 1.8346 0.92554 1.8346 2.7766 0 1.8511-0.56194 2.7932-1.8346 2.7932-1.2561 0-1.818-0.94207-1.818-2.7932 0-1.8511 0.56194-2.7766 1.818-2.7766z"/>
     <path d="m841.19-544.26c-2.5783 0-4.1319 1.3387-4.1319 4.4624 0 3.0411 1.3553 4.4129 4.1319 4.4129 0.85944 0 2.7766-0.31402 2.7766-1.0412 0-0.2975-0.42972-1.1074-0.74374-1.1074-0.0496 0-0.13222 0.0496-0.26445 0.0992-0.29749 0.14875-0.87596 0.39666-1.7023 0.39666-1.4875 0-2.066-0.89249-2.066-2.8097s0.69416-2.7601 2.066-2.7601c0.76027 0 1.2726 0.23139 1.5701 0.38013 0.1157 0.0496 0.19833 0.0992 0.26445 0.0992 0.24791 0 0.74374-0.84291 0.74374-1.1404 0-0.62805-1.4379-0.99166-2.6444-0.99166z"/>
     <path d="m849.29-544.26c-0.87596 0-1.4214 0.56194-1.8511 1.2396-0.0992-0.41319-0.14875-1.0743-0.62805-1.0743-0.34708 0-1.504 0.11569-1.504 0.4793 0 0.23138 0.19833 0.69415 0.19833 2.2312v5.4541c0 0.2975 0.26444 0.46277 0.87596 0.46277h0.31403c0.61152 0 0.87596-0.16527 0.87596-0.46277v-5.5863c0.11569-0.19833 0.64457-0.89249 1.3883-0.89249 0.41319 0 0.59499 0.14875 0.82638 0.14875 0.28097 0 0.44624-0.89249 0.44624-1.2065 0-0.33055-0.19833-0.79332-0.94207-0.79332z"/>
     <path d="m854.75-544.26c-1.7684 0-3.1402 0.59499-3.1402 1.1074 0 0.28097 0.44624 1.1404 0.76027 1.1404 0.1818 0 0.9586-0.59499 2.2808-0.59499 1.0743 0 1.471 0.44624 1.471 1.1074v0.62805c-3.5865 0.0165-5.0079 1.1735-5.0079 3.0576 0 1.471 0.85944 2.4296 2.5783 2.4296 1.4214 0 2.2643-0.85944 2.5618-1.2396 0.0992 0.44625 0.14875 1.1404 0.62805 1.1404 0.34708 0 1.504-0.11569 1.504-0.4793 0-0.24791-0.19833-0.69416-0.19833-2.2808v-3.322c0-1.6197-1.0412-2.694-3.4377-2.694zm1.3718 4.8426v1.2892c-0.41319 0.59499-1.0578 1.0743-1.8841 1.0743-0.69416 0-1.0412-0.3636-1.0412-0.9586 0-1.1239 1.3057-1.3883 2.9254-1.4048z"/>
     <path d="m864.27-544.26c-2.5783 0-4.1319 1.3387-4.1319 4.4624 0 3.0411 1.3553 4.4129 4.1319 4.4129 0.85943 0 2.7766-0.31402 2.7766-1.0412 0-0.2975-0.42972-1.1074-0.74374-1.1074-0.0496 0-0.13222 0.0496-0.26444 0.0992-0.2975 0.14875-0.87596 0.39666-1.7023 0.39666-1.4875 0-2.066-0.89249-2.066-2.8097s0.69415-2.7601 2.066-2.7601c0.76027 0 1.2726 0.23139 1.5701 0.38013 0.11569 0.0496 0.19833 0.0992 0.26444 0.0992 0.24791 0 0.74374-0.84291 0.74374-1.1404 0-0.62805-1.4379-0.99166-2.6444-0.99166z"/>
     <path d="m874.31-544.18h-0.26444c-0.44625 0-0.76027 0.0826-0.84291 0.31402l-1.223 3.57c-0.14875 0.42972-0.33055 1.2561-0.49583 1.8842h-0.0496c-0.14875-0.64458-0.34708-1.4379-0.4793-1.8842l-1.2396-3.57c-0.0826-0.23138-0.41319-0.31402-0.82638-0.31402h-0.39667c-0.61152 0-0.89249 0.13222-0.89249 0.33055 0 0.0826 0.0331 0.1818 0.0661 0.26444l2.7766 7.9167-1.1569 2.975c-0.0661 0.14875-0.0826 0.23139-0.0826 0.2975 0 0.1818 0.26444 0.31402 0.82638 0.31402h0.28097c0.44625 0 0.76027-0.0992 0.85944-0.34708l3.9666-11.14c0.0331-0.11569 0.0496-0.19833 0.0496-0.28097 0-0.21486-0.26444-0.33055-0.87596-0.33055z"/>
    </g>
    <g fill="#313131" opacity=".90498" stroke-dasharray="0.899854, 0.899854" stroke-width=".89985" aria-label="evoting for democracy">
     <path d="m716.01-544.26c-2.413 0-3.9501 1.3553-3.9501 4.4955 0 2.7766 1.3222 4.3798 4.2145 4.3798 1.2065 0 2.975-0.46277 2.975-1.1404 0-0.28097-0.44625-1.0908-0.76027-1.0908-0.19833 0-0.9586 0.57847-2.1486 0.57847-1.2726 0-2.0164-0.56194-2.1321-2.0825h4.5782c0.21485 0 0.74374-0.61152 0.74374-0.85943 0-2.4791-1.0412-4.2806-3.5204-4.2806zm-0.0165 1.6528c1.0082 0 1.4875 0.7768 1.4875 2.0164h-3.2725c0.16528-1.4379 0.82638-2.0164 1.785-2.0164z"/>
     <path d="m727.14-544.18h-0.28097c-0.42972 0-0.76027 0.0826-0.84291 0.31402l-1.2396 3.884c-0.13222 0.46277-0.33055 1.3387-0.46277 1.9998h-0.0661c-0.16528-0.66111-0.36361-1.5205-0.51236-2.0164l-1.2396-3.8675c-0.0661-0.23138-0.39666-0.31402-0.82638-0.31402h-0.38013c-0.61153 0-0.89249 0.13222-0.89249 0.33055 0 0.0826 0.0331 0.1818 0.0661 0.26444l2.6279 7.801c0.0826 0.23138 0.41319 0.31402 0.84291 0.31402h0.54541c0.41319 0 0.74374-0.0826 0.82638-0.31402l2.6444-7.7845c0.0331-0.11569 0.0496-0.19833 0.0496-0.28097 0-0.21486-0.26444-0.33055-0.85943-0.33055z"/>
     <path d="m732.94-544.26c-2.5618 0-3.9501 1.5701-3.9501 4.4459 0 2.8593 1.3718 4.4294 3.9501 4.4294 2.5618 0 3.917-1.5536 3.917-4.4294 0-2.8758-1.3553-4.4459-3.917-4.4459zm-0.0331 1.6528c1.2726 0 1.8346 0.92554 1.8346 2.7766 0 1.8511-0.56194 2.7932-1.8346 2.7932-1.2561 0-1.818-0.94207-1.818-2.7932 0-1.8511 0.56194-2.7766 1.818-2.7766z"/>
     <path d="m740.43-546.25h-0.39666c-0.46278 0-0.71069 0.16527-0.76027 0.46277l-0.19833 1.6362h-0.47931c-0.29749 0-0.42971 0.21486-0.42971 0.71069v0.24791c0 0.49583 0.13222 0.71069 0.42971 0.71069h0.47931v4.5616c0 1.8676 1.0247 2.5287 2.3139 2.5287 0.4793 0 1.4379-0.0496 1.4379-0.69416 0-0.13222-0.14875-1.0412-0.44624-1.0412-0.1157 0-0.28097 0.0826-0.54542 0.0826-0.44624 0-0.71068-0.23139-0.71068-0.90902v-4.5286h1.0247c0.31402 0 0.44624-0.21486 0.44624-0.71069v-0.24791c0-0.49583-0.13222-0.71069-0.44624-0.71069h-1.0247v-1.6362c0-0.2975-0.19833-0.46277-0.69416-0.46277z"/>
     <path d="m745.65-547.95h-0.3636c-0.61153 0-0.87597 0.16528-0.87597 0.46278v1.2065c0 0.31403 0.26444 0.46277 0.87597 0.46277h0.3636c0.61152 0 0.87597-0.14874 0.87597-0.46277v-1.2065c0-0.2975-0.26445-0.46278-0.87597-0.46278zm-0.0165 3.7683h-0.31403c-0.61152 0-0.87596 0.16527-0.87596 0.46277v7.7845c0 0.2975 0.26444 0.46277 0.87596 0.46277h0.31403c0.61152 0 0.87596-0.16527 0.87596-0.46277v-7.7845c0-0.2975-0.26444-0.46277-0.87596-0.46277z"/>
     <path d="m753.27-544.26c-1.0247 0-1.9503 0.56194-2.5122 1.2396-0.0992-0.41319-0.14875-1.0743-0.62805-1.0743-0.34708 0-1.504 0.11569-1.504 0.4793 0 0.23138 0.19833 0.69415 0.19833 2.2312v5.4541c0 0.2975 0.26444 0.46277 0.87597 0.46277h0.31402c0.61152 0 0.87596-0.16527 0.87596-0.46277v-5.5863c0.31403-0.49583 0.89249-1.0247 1.5866-1.0247 0.85944 0 1.2561 0.46277 1.2561 1.2396v5.3715c0 0.2975 0.26444 0.46277 0.85943 0.46277h0.33056c0.61152 0 0.85943-0.16527 0.85943-0.46277v-5.6524c0-1.785-0.85943-2.6775-2.5122-2.6775z"/>
     <path d="m761.25-544.26c-2.0164 0-3.4377 0.94207-3.4377 2.8428 0 1.1404 0.51236 1.9668 1.3718 2.413-0.62804 0.3636-0.97512 0.87596-0.97512 1.504 0 0.57846 0.24791 1.0247 0.69416 1.2892l-0.0165 0.0496c-0.92555 0.36361-1.504 1.0578-1.504 1.9668 0 1.504 1.3387 2.1982 3.7518 2.1982 2.5287 0 4.0823-1.0412 4.0823-2.694 0-1.6032-1.2726-2.0329-2.5452-2.2478-1.2726-0.19834-2.5122-0.19834-2.5122-0.92555 0-0.49583 0.41319-0.69416 1.2065-0.69416 1.9668 0 3.322-0.99165 3.322-2.8593 0-0.38014-0.1157-0.82638-0.31403-1.1074l0.0165-0.0496c0.21486 0.0331 0.61152 0.0661 0.87596 0.0661 0.24792 0 0.38014-0.19833 0.38014-0.67763v-0.24791c0-0.49583-0.13222-0.71069-0.44625-0.71069h-2.7766c-0.3636-0.0826-0.76027-0.11569-1.1735-0.11569zm0 1.5205c0.82638 0 1.504 0.36361 1.504 1.3387 0 0.9586-0.67764 1.3057-1.504 1.3057s-1.504-0.34708-1.504-1.3057c0-0.97512 0.67763-1.3387 1.504-1.3387zm-0.94207 7.1399c1.6528 0.23139 2.9089 0.23139 2.9089 1.0082 0 0.61153-0.61152 0.95861-1.9007 0.95861-1.1735 0-1.9668-0.26445-1.9668-0.90902 0-0.46278 0.38014-0.84291 0.9586-1.0578z"/>
     <path d="m773.63-548.05c-1.2892 0-2.3139 0.6611-2.3139 2.5452v1.3553h-0.42972c-0.29749 0-0.42971 0.21486-0.42971 0.71069v0.24791c0 0.49583 0.13222 0.71069 0.42971 0.71069h0.42972v6.5449c0 0.2975 0.26444 0.46277 0.87596 0.46277h0.31403c0.61152 0 0.87596-0.16527 0.87596-0.46277v-6.5449h1.0578c0.29749 0 0.42971-0.21486 0.42971-0.71069v-0.24791c0-0.49583-0.13222-0.71069-0.42971-0.71069h-1.0578v-1.3387c0-0.71069 0.26444-0.89249 0.71069-0.89249 0.28097 0 0.44624 0.0661 0.57846 0.0661 0.2975 0 0.44625-0.89249 0.44625-1.0247 0-0.66111-0.99166-0.71069-1.4875-0.71069z"/>
     <path d="m779.94-544.26c-2.5618 0-3.9501 1.5701-3.9501 4.4459 0 2.8593 1.3718 4.4294 3.9501 4.4294 2.5618 0 3.917-1.5536 3.917-4.4294 0-2.8758-1.3553-4.4459-3.917-4.4459zm-0.0331 1.6528c1.2726 0 1.8346 0.92554 1.8346 2.7766 0 1.8511-0.56194 2.7932-1.8346 2.7932-1.2561 0-1.818-0.94207-1.818-2.7932 0-1.8511 0.56194-2.7766 1.818-2.7766z"/>
     <path d="m789.59-544.26c-0.87596 0-1.4214 0.56194-1.8511 1.2396-0.0992-0.41319-0.14875-1.0743-0.62805-1.0743-0.34708 0-1.504 0.11569-1.504 0.4793 0 0.23138 0.19833 0.69415 0.19833 2.2312v5.4541c0 0.2975 0.26444 0.46277 0.87596 0.46277h0.31403c0.61152 0 0.87596-0.16527 0.87596-0.46277v-5.5863c0.1157-0.19833 0.64458-0.89249 1.3883-0.89249 0.41319 0 0.59499 0.14875 0.82638 0.14875 0.28097 0 0.44625-0.89249 0.44625-1.2065 0-0.33055-0.19834-0.79332-0.94208-0.79332z"/>
     <path d="m801.96-547.95h-0.31402c-0.61152 0-0.87596 0.16528-0.87596 0.46278v3.8509c-0.46278-0.33055-1.0578-0.62805-1.9337-0.62805-2.1321 0-3.4377 1.6693-3.4377 4.4294 0 2.7601 1.2726 4.4459 3.1402 4.4459 0.99166 0 1.818-0.4793 2.3634-1.2396 0.0992 0.44625 0.14874 1.1404 0.62805 1.1404 0.33055 0 1.504-0.11569 1.504-0.4793 0-0.24791-0.19833-0.69416-0.19833-2.2808v-9.2389c0-0.2975-0.26445-0.46278-0.87597-0.46278zm-2.6775 5.355c0.595 0 1.0908 0.19833 1.4875 0.4793v3.9832c-0.44625 0.59499-1.0247 1.0412-1.6858 1.0412-1.0412 0-1.5866-0.99166-1.5866-2.7932 0-1.7519 0.57847-2.694 1.785-2.7105z"/>
     <path d="m808.7-544.26c-2.413 0-3.9501 1.3553-3.9501 4.4955 0 2.7766 1.3222 4.3798 4.2145 4.3798 1.2065 0 2.975-0.46277 2.975-1.1404 0-0.28097-0.44624-1.0908-0.76027-1.0908-0.19833 0-0.9586 0.57847-2.1486 0.57847-1.2726 0-2.0164-0.56194-2.1321-2.0825h4.5782c0.21486 0 0.74374-0.61152 0.74374-0.85943 0-2.4791-1.0412-4.2806-3.5204-4.2806zm-0.0165 1.6528c1.0082 0 1.4875 0.7768 1.4875 2.0164h-3.2725c0.16528-1.4379 0.82638-2.0164 1.785-2.0164z"/>
     <path d="m823.26-544.26c-1.0743 0-2.0329 0.62805-2.5618 1.2892-0.38014-0.9586-1.2396-1.2892-2.2478-1.2892-1.0743 0-1.9668 0.61152-2.4791 1.2396-0.0992-0.41319-0.14875-1.0743-0.62805-1.0743-0.34708 0-1.504 0.11569-1.504 0.4793 0 0.23138 0.19833 0.69415 0.19833 2.2312v5.4541c0 0.2975 0.26444 0.46277 0.87597 0.46277h0.31402c0.61152 0 0.87596-0.16527 0.87596-0.46277v-5.5863c0.1157-0.24791 0.69416-1.0247 1.5536-1.0247 0.85943 0 1.2065 0.46277 1.2065 1.2396v5.3715c0 0.2975 0.26444 0.46277 0.87596 0.46277h0.31403c0.61152 0 0.87596-0.16527 0.87596-0.46277v-5.6029c0.23139-0.34708 0.74374-1.0082 1.5536-1.0082 0.8429 0 1.2065 0.46277 1.2065 1.2396v5.3715c0 0.2975 0.24791 0.46277 0.85944 0.46277h0.33055c0.61152 0 0.85943-0.16527 0.85943-0.46277v-5.6524c0-1.9833-1.0412-2.6775-2.4791-2.6775z"/>
     <path d="m831.62-544.26c-2.5618 0-3.9501 1.5701-3.9501 4.4459 0 2.8593 1.3718 4.4294 3.9501 4.4294 2.5618 0 3.917-1.5536 3.917-4.4294 0-2.8758-1.3553-4.4459-3.917-4.4459zm-0.0331 1.6528c1.2726 0 1.8346 0.92554 1.8346 2.7766 0 1.8511-0.56194 2.7932-1.8346 2.7932-1.2561 0-1.818-0.94207-1.818-2.7932 0-1.8511 0.56194-2.7766 1.818-2.7766z"/>
     <path d="m841.19-544.26c-2.5783 0-4.1319 1.3387-4.1319 4.4624 0 3.0411 1.3553 4.4129 4.1319 4.4129 0.85944 0 2.7766-0.31402 2.7766-1.0412 0-0.2975-0.42972-1.1074-0.74374-1.1074-0.0496 0-0.13222 0.0496-0.26445 0.0992-0.29749 0.14875-0.87596 0.39666-1.7023 0.39666-1.4875 0-2.066-0.89249-2.066-2.8097s0.69416-2.7601 2.066-2.7601c0.76027 0 1.2726 0.23139 1.5701 0.38013 0.1157 0.0496 0.19833 0.0992 0.26445 0.0992 0.24791 0 0.74374-0.84291 0.74374-1.1404 0-0.62805-1.4379-0.99166-2.6444-0.99166z"/>
     <path d="m849.29-544.26c-0.87596 0-1.4214 0.56194-1.8511 1.2396-0.0992-0.41319-0.14875-1.0743-0.62805-1.0743-0.34708 0-1.504 0.11569-1.504 0.4793 0 0.23138 0.19833 0.69415 0.19833 2.2312v5.4541c0 0.2975 0.26444 0.46277 0.87596 0.46277h0.31403c0.61152 0 0.87596-0.16527 0.87596-0.46277v-5.5863c0.11569-0.19833 0.64457-0.89249 1.3883-0.89249 0.41319 0 0.59499 0.14875 0.82638 0.14875 0.28097 0 0.44624-0.89249 0.44624-1.2065 0-0.33055-0.19833-0.79332-0.94207-0.79332z"/>
     <path d="m854.75-544.26c-1.7684 0-3.1402 0.59499-3.1402 1.1074 0 0.28097 0.44624 1.1404 0.76027 1.1404 0.1818 0 0.9586-0.59499 2.2808-0.59499 1.0743 0 1.471 0.44624 1.471 1.1074v0.62805c-3.5865 0.0165-5.0079 1.1735-5.0079 3.0576 0 1.471 0.85944 2.4296 2.5783 2.4296 1.4214 0 2.2643-0.85944 2.5618-1.2396 0.0992 0.44625 0.14875 1.1404 0.62805 1.1404 0.34708 0 1.504-0.11569 1.504-0.4793 0-0.24791-0.19833-0.69416-0.19833-2.2808v-3.322c0-1.6197-1.0412-2.694-3.4377-2.694zm1.3718 4.8426v1.2892c-0.41319 0.59499-1.0578 1.0743-1.8841 1.0743-0.69416 0-1.0412-0.3636-1.0412-0.9586 0-1.1239 1.3057-1.3883 2.9254-1.4048z"/>
     <path d="m864.27-544.26c-2.5783 0-4.1319 1.3387-4.1319 4.4624 0 3.0411 1.3553 4.4129 4.1319 4.4129 0.85943 0 2.7766-0.31402 2.7766-1.0412 0-0.2975-0.42972-1.1074-0.74374-1.1074-0.0496 0-0.13222 0.0496-0.26444 0.0992-0.2975 0.14875-0.87596 0.39666-1.7023 0.39666-1.4875 0-2.066-0.89249-2.066-2.8097s0.69415-2.7601 2.066-2.7601c0.76027 0 1.2726 0.23139 1.5701 0.38013 0.11569 0.0496 0.19833 0.0992 0.26444 0.0992 0.24791 0 0.74374-0.84291 0.74374-1.1404 0-0.62805-1.4379-0.99166-2.6444-0.99166z"/>
     <path d="m874.31-544.18h-0.26444c-0.44625 0-0.76027 0.0826-0.84291 0.31402l-1.223 3.57c-0.14875 0.42972-0.33055 1.2561-0.49583 1.8842h-0.0496c-0.14875-0.64458-0.34708-1.4379-0.4793-1.8842l-1.2396-3.57c-0.0826-0.23138-0.41319-0.31402-0.82638-0.31402h-0.39667c-0.61152 0-0.89249 0.13222-0.89249 0.33055 0 0.0826 0.0331 0.1818 0.0661 0.26444l2.7766 7.9167-1.1569 2.975c-0.0661 0.14875-0.0826 0.23139-0.0826 0.2975 0 0.1818 0.26444 0.31402 0.82638 0.31402h0.28097c0.44625 0 0.76027-0.0992 0.85944-0.34708l3.9666-11.14c0.0331-0.11569 0.0496-0.19833 0.0496-0.28097 0-0.21486-0.26444-0.33055-0.87596-0.33055z"/>
    </g>
   </g>
  </g>
 </g>
</svg>
