<?xml version="1.0" encoding="UTF-8"?>
<!-- Created with Inkscape (http://www.inkscape.org/) -->
<svg width="164.23mm" height="23.115mm" version="1.1" viewBox="0 0 164.23 23.115" xmlns="http://www.w3.org/2000/svg">
 <g transform="translate(41.222 -60.73)">
  <g transform="matrix(.35278 0 0 -.35278 -235.87 273.02)">
   <path d="m551.75 540.37c62.133-0.0239 74.041 1.8331 79.894 28.917 15.3 3.8613 19.99 10.093 23.493 25.291 6.6116 0.27655 17.047-0.0281 23.451 1.8205 3.1209 3.2394-4.6544 2.2903-7.0409 2.3769-15.425 0.26325-30.88 0.2604-46.283 0.73036-16.171-3e-3 -23.108-13.816-25.4-27.4-18.785-1.5862-23.216-11.585-27.881-26.596-6.2032-1.295-13.09 0.57013-18.86-2.5184-0.83859-0.58831-1.3878-1.5874-1.3724-2.6209zm24.058 5.1502c5.7866 18.625 13.712 21.766 23.614 22.665-1.6312-5.4733-3.2732-15.473-4.6543-21.01m4.5081 0.0961c1.5868 7.5596 4.2284 20.832 4.2284 20.832l23.74 1.2514c-2.5164-12.006-12.574-22.083-27.969-22.083zm5.0562 25.081c5.8459 15.393 11.691 23.248 26.446 23.022-0.60812-5.3335-2.1867-16.584-2.9742-21.894m4.5298 0.0371c0.73258 6.7988 2.3456 21.601 2.3456 21.601l16.565-0.49015s-2.8276-16.746-18.911-21.111" fill="#402c2c"/>
   <text transform="scale(1,-1)" x="691.58661" y="-560.69861" fill="#000000" font-family="sans-serif" font-size="54.739px" letter-spacing="0px" stroke-width="1.3685px" word-spacing="0px" style="line-height:125%" xml:space="preserve"><tspan x="691.58661" y="-560.69861" fill="#400000" font-family="'Accanthis ADF Std No3'" font-size="54.74px" stroke-width="1.3685px" style="font-feature-settings:normal;font-variant-caps:normal;font-variant-ligatures:normal;font-variant-numeric:normal">PeaceFounder</tspan></text>
   <text transform="scale(1,-1)" x="750.63452" y="-541.15881" fill="#000000" font-family="sans-serif" font-size="19.713px" letter-spacing="0px" stroke-width=".49283px" word-spacing="0px" style="line-height:125%" xml:space="preserve"><tspan x="750.63452" y="-541.15881" fill="#400000" font-family="'Accanthis ADF Std No3'" font-size="19.713px" stroke-width=".49283px" style="font-feature-settings:normal;font-variant-caps:normal;font-variant-ligatures:normal;font-variant-numeric:normal">evoting for democracy</tspan></text>
  </g>
 </g>
</svg>
