<?xml version="1.0" encoding="UTF-8" standalone="no"?>
<!-- Created with Inkscape (http://www.inkscape.org/) -->

<svg
   width="164.23mm"
   height="23.115mm"
   version="1.1"
   viewBox="0 0 164.23 23.115"
   id="svg455"
   sodipodi:docname="logo-large.svg"
   inkscape:version="1.2.1 (9c6d41e, 2022-07-14)"
   inkscape:export-filename="logo-large.png"
   inkscape:export-xdpi="219.77"
   inkscape:export-ydpi="219.77"
   xmlns:inkscape="http://www.inkscape.org/namespaces/inkscape"
   xmlns:sodipodi="http://sodipodi.sourceforge.net/DTD/sodipodi-0.dtd"
   xmlns="http://www.w3.org/2000/svg"
   xmlns:svg="http://www.w3.org/2000/svg">
  <sodipodi:namedview
     id="namedview585"
     pagecolor="#ffffff"
     bordercolor="#000000"
     borderopacity="0.25"
     inkscape:showpageshadow="2"
     inkscape:pageopacity="0.0"
     inkscape:pagecheckerboard="0"
     inkscape:deskcolor="#d1d1d1"
     inkscape:document-units="mm"
     showgrid="false"
     showguides="false"
     inkscape:zoom="1.160765"
     inkscape:cx="323.49355"
     inkscape:cy="64.61256"
     inkscape:window-width="1512"
     inkscape:window-height="858"
     inkscape:window-x="0"
     inkscape:window-y="38"
     inkscape:window-maximized="1"
     inkscape:current-layer="text445" />
  <defs
     id="defs459" />
  <g
     transform="translate(41.222 -60.73)"
     id="g453">
    <g
       transform="matrix(.35278 0 0 -.35278 -235.87 273.02)"
       id="g451">
      <path
         d="m551.75 540.37c62.133-0.0239 74.041 1.8331 79.894 28.917 15.3 3.8613 19.99 10.093 23.493 25.291 6.6116 0.27655 17.047-0.0281 23.451 1.8205 3.1209 3.2394-4.6544 2.2903-7.0409 2.3769-15.425 0.26325-30.88 0.2604-46.283 0.73036-16.171-3e-3 -23.108-13.816-25.4-27.4-18.785-1.5862-23.216-11.585-27.881-26.596-6.2032-1.295-13.09 0.57013-18.86-2.5184-0.83859-0.58831-1.3878-1.5874-1.3724-2.6209zm24.058 5.1502c5.7866 18.625 13.712 21.766 23.614 22.665-1.6312-5.4733-3.2732-15.473-4.6543-21.01m4.5081 0.0961c1.5868 7.5596 4.2284 20.832 4.2284 20.832l23.74 1.2514c-2.5164-12.006-12.574-22.083-27.969-22.083zm5.0562 25.081c5.8459 15.393 11.691 23.248 26.446 23.022-0.60812-5.3335-2.1867-16.584-2.9742-21.894m4.5298 0.0371c0.73258 6.7988 2.3456 21.601 2.3456 21.601l16.565-0.49015s-2.8276-16.746-18.911-21.111"
         fill="#402c2c"
         id="path441" />
      <g
         aria-label="PeaceFounder"
         transform="scale(1,-1)"
         id="text445"
         style="font-size:54.739px;line-height:125%;letter-spacing:0px;word-spacing:0px;stroke-width:1.3685px">
        <path
           d="m 700.78293,-580.67871 c 3.17492,1.0948 6.73302,1.80642 10.07216,1.80642 6.13088,0 10.07216,-4.87186 10.07216,-10.18164 0,-5.36452 -4.9266,-9.96268 -10.89326,-9.96268 h -16.6957 c -0.21896,0.21896 -0.21896,0.43792 -0.2737,0.65688 0.0547,0.32844 0.16422,0.5474 0.2737,0.71162 1.47798,0 2.95596,0.0547 2.95596,1.3685 v 32.844 c 0,1.31376 -1.47798,1.3685 -2.95596,1.3685 -0.16422,0.16422 -0.2737,0.49266 -0.2737,0.71162 0,0.21896 0.10948,0.43792 0.2737,0.65688 h 10.45534 c 0.16422,-0.16422 0.2737,-0.43792 0.2737,-0.65688 0,-0.2737 -0.0547,-0.49266 -0.2737,-0.71162 -1.53272,0 -3.0107,-0.0547 -3.0107,-1.3685 z m 0,-15.6009 c 0,-1.04006 0.32844,-1.3685 1.47798,-1.3685 h 5.41926 c 6.07614,0 8.59418,3.44862 8.59418,8.59418 0,4.81712 -3.0107,7.88256 -8.26574,7.88256 -2.4633,0 -4.9266,-0.16422 -7.22568,-1.0948 z"
           style="font-size:54.74px;font-family:'Accanthis ADF Std No3';fill:#400000"
           id="path587" />
        <path
           d="m 731.71083,-583.90837 c 2.24434,0 5.52874,2.24434 6.07614,4.3792 l -12.5902,5.80244 c 0,-3.61284 1.53272,-10.18164 6.51406,-10.18164 z m 2.13486,22.38866 c -5.91192,0 -8.53944,-5.63822 -8.64892,-10.45534 l 18.55686,-8.32048 c -2.737,-3.33914 -6.40458,-5.03608 -11.05748,-5.03608 -7.6636,0 -12.53546,6.13088 -12.53546,12.5902 0,6.45932 4.87186,12.5902 12.53546,12.5902 5.80244,0 9.96268,-3.12018 9.96268,-4.1055 0,-0.60214 -0.5474,-1.04006 -1.14954,-1.04006 -0.98532,0 -2.79174,3.77706 -7.6636,3.77706 z"
           style="font-size:54.74px;font-family:'Accanthis ADF Std No3';fill:#400000"
           id="path589" />
        <path
           d="m 762.4199,-565.35151 c 0,2.02538 -4.1055,3.8318 -5.96666,3.8318 -3.0107,0 -5.2003,-1.86116 -5.2003,-4.70764 0,-1.3685 0.32844,-3.44862 2.35382,-4.21498 l 8.81314,-3.12018 z m -6.95198,5.2003 c 2.62752,0 5.36452,-1.04006 6.95198,-3.06544 v 0.0547 c 0,1.75168 1.80642,3.0107 3.61284,3.0107 1.47798,0 3.50336,-0.49266 3.5581,-2.1896 -0.32844,0.38318 -0.71162,0.76636 -1.25902,0.76636 -1.42324,0 -1.47798,-2.1896 -1.47798,-3.0107 v -13.63026 c 0,-5.80244 -5.41926,-7.1162 -10.6743,-7.1162 -2.4633,0 -8.04678,1.80642 -8.04678,4.6529 0,0.8211 0.71162,1.58746 1.69694,1.58746 2.13486,0 2.62752,-4.81712 7.28042,-4.81712 4.16024,0 5.30978,3.61284 5.30978,6.78776 v 2.1896 l -11.87858,4.16024 c -2.51804,0.87584 -4.05076,2.62752 -4.05076,4.98134 0,4.3792 4.81712,5.63822 8.97736,5.63822 z"
           style="font-size:54.74px;font-family:'Accanthis ADF Std No3';fill:#400000"
           id="path591" />
        <path
           d="m 786.94332,-561.51971 c -7.1162,0 -8.53944,-7.17094 -8.53944,-12.53546 0,-3.44862 1.58746,-9.8532 6.40458,-9.8532 2.57278,0 5.36452,3.33914 7.6636,3.33914 0.93058,0 1.80642,-0.76636 1.80642,-1.6422 0,-2.62752 -6.62354,-3.12018 -8.4847,-3.12018 -7.6636,0 -12.53546,6.13088 -12.53546,12.5902 0,6.45932 5.03608,12.5902 12.53546,12.5902 6.07614,0 9.08684,-3.50336 9.08684,-4.3792 0,-0.5474 -0.10948,-0.76636 -0.38318,-0.76636 -0.93058,0 -3.77706,3.77706 -7.55412,3.77706 z"
           style="font-size:54.74px;font-family:'Accanthis ADF Std No3';fill:#400000"
           id="path593" />
        <path
           d="m 809.98884,-583.90837 c 2.24434,0 5.52874,2.24434 6.07614,4.3792 l -12.5902,5.80244 c 0,-3.61284 1.53272,-10.18164 6.51406,-10.18164 z m 2.13486,22.38866 c -5.91192,0 -8.53944,-5.63822 -8.64892,-10.45534 l 18.55686,-8.32048 c -2.737,-3.33914 -6.40458,-5.03608 -11.05748,-5.03608 -7.6636,0 -12.53546,6.13088 -12.53546,12.5902 0,6.45932 4.87186,12.5902 12.53546,12.5902 5.80244,0 9.96268,-3.12018 9.96268,-4.1055 0,-0.60214 -0.5474,-1.04006 -1.14954,-1.04006 -0.98532,0 -2.79174,3.77706 -7.6636,3.77706 z"
           style="font-size:54.74px;font-family:'Accanthis ADF Std No3';fill:#400000"
           id="path595" />
        <path
           d="m 850.87955,-591.79093 c 0.65688,0 1.20428,-0.43792 1.47798,-0.98532 l -3.33914,-6.24036 h -24.24982 c -0.10948,0.10948 -0.21896,0.32844 -0.2737,0.65688 0.0547,0.32844 0.16422,0.5474 0.2737,0.71162 h 1.53272 c 1.0948,0 1.42324,0.43792 1.42324,1.3685 v 32.844 c 0,0.76636 -0.21896,1.31376 -1.25902,1.3685 h -1.69694 c -0.16422,0.16422 -0.2737,0.49266 -0.2737,0.71162 0,0.21896 0.10948,0.43792 0.2737,0.65688 h 10.45534 c 0.16422,-0.16422 0.2737,-0.43792 0.2737,-0.65688 0,-0.2737 -0.0547,-0.49266 -0.2737,-0.71162 h -1.86116 c -0.87584,0 -1.14954,-0.65688 -1.14954,-1.3685 v -15.38194 h 8.81314 c 1.0948,0 1.47798,0.21896 1.47798,1.3685 v 2.35382 c 0.16422,0.16422 0.43792,0.2737 0.76636,0.2737 0.2737,0 0.60214,-0.10948 0.71162,-0.2737 v -9.5795 c -0.16422,-0.16422 -0.43792,-0.2737 -0.71162,-0.2737 -0.2737,0 -0.5474,0.0547 -0.76636,0.2737 v 2.02538 c 0,1.3685 -0.16422,1.69694 -1.47798,1.69694 h -8.81314 v -15.3272 c 0,-1.20428 0.5474,-1.3685 2.57278,-1.3685 15.21772,0 13.46604,5.85718 16.09356,5.85718 z"
           style="font-size:54.74px;font-family:'Accanthis ADF Std No3';fill:#400000"
           id="path597" />
        <path
           d="m 861.17061,-583.90837 c 7.6636,0 8.59418,6.95198 8.59418,12.64494 0,3.66758 -1.6422,9.68898 -6.45932,9.68898 -7.17094,0 -8.53944,-7.1162 -8.53944,-12.48072 0,-3.5581 1.69694,-9.8532 6.40458,-9.8532 z m 0.98532,-1.42324 c -7.6636,0 -12.53546,6.13088 -12.53546,12.5902 0,6.45932 4.87186,12.5902 12.53546,12.5902 7.71834,0 12.5902,-6.13088 12.5902,-12.5902 0,-6.45932 -4.87186,-12.5902 -12.5902,-12.5902 z"
           style="font-size:54.74px;font-family:'Accanthis ADF Std No3';fill:#400000"
           id="path599" />
        <path
           d="m 878.52316,-582.59461 2.95596,2.737 v 12.8639 c 0,3.61284 2.62752,6.8425 6.73302,6.8425 4.1055,0 7.00672,-4.1055 9.08684,-6.8425 v 6.8425 l 7.44464,-0.5474 c 0.16422,-0.16422 0.2737,-0.43792 0.2737,-0.65688 0,-0.2737 -0.0547,-0.49266 -0.2737,-0.71162 -0.43792,0 -0.93058,0.0547 -1.3685,0.0547 -0.93058,0 -1.6422,-0.21896 -1.6422,-1.42324 v -19.159 c 0,-0.93058 0.21896,-1.86116 0.60214,-2.737 -3.0107,0 -5.09082,2.737 -8.04678,2.737 l 3.0107,2.737 v 12.3165 c -1.75168,1.58746 -5.36452,4.6529 -7.99204,4.6529 -3.06544,0 -3.33914,-3.39388 -3.33914,-5.474 v -14.2324 c 0,-0.93058 0.16422,-1.86116 0.60214,-2.737 -3.0107,0 -4.98134,2.737 -8.04678,2.737 z"
           style="font-size:54.74px;font-family:'Accanthis ADF Std No3';fill:#400000"
           id="path601" />
        <path
           d="m 916.239,-585.33161 c -2.95596,0 -5.14556,2.737 -8.10152,2.737 l 3.0107,2.737 v 16.422 c 0,1.04006 -0.5474,1.31376 -1.25902,1.3685 h -1.75168 c -0.21896,0.2737 -0.21896,0.5474 -0.21896,0.76636 0,0.16422 0.10948,0.38318 0.21896,0.60214 h 10.45534 c 0.16422,-0.16422 0.2737,-0.43792 0.2737,-0.65688 0,-0.2737 -0.0547,-0.49266 -0.2737,-0.71162 h -1.75168 c -0.71162,0 -1.20428,-0.32844 -1.20428,-1.3685 v -14.5061 c 1.69694,-1.58746 5.30978,-4.6529 7.9373,-4.6529 3.06544,0 3.33914,3.39388 3.33914,5.474 v 13.685 c 0,1.04006 -0.49266,1.31376 -1.25902,1.3685 h -1.69694 c -0.21896,0.21896 -0.2737,0.43792 -0.2737,0.65688 -0.0547,0.21896 0.0547,0.43792 0.2737,0.71162 h 10.4006 c 0.16422,-0.16422 0.38318,-0.43792 0.38318,-0.65688 0,-0.2737 -0.0547,-0.49266 -0.38318,-0.71162 h -1.75168 c -0.71162,0 -1.20428,-0.32844 -1.20428,-1.3685 v -15.0535 c 0,-3.61284 -2.57278,-6.8425 -6.73302,-6.8425 -4.05076,0 -7.00672,4.1055 -9.0321,6.8425 v -4.1055 c 0,-0.93058 0.21896,-1.86116 0.60214,-2.737 z"
           style="font-size:54.74px;font-family:'Accanthis ADF Std No3';fill:#400000"
           id="path603" />
        <path
           d="m 957.89608,-581.22611 v 15.0535 c 0,3.06544 -3.06544,4.59816 -6.07614,4.59816 -7.22568,0 -8.53944,-7.06146 -8.53944,-12.48072 0,-3.61284 2.90122,-9.8532 7.55412,-9.8532 2.62752,0 5.25504,1.0948 7.06146,2.68226 z m -2.95596,-17.7905 2.95596,2.737 v 13.685 c -1.58746,-1.47798 -4.9266,-2.737 -7.22568,-2.737 -7.60886,0 -12.53546,6.13088 -12.53546,12.5902 0,6.45932 5.03608,12.5902 12.53546,12.5902 2.95596,0 4.76238,-0.5474 7.22568,-1.86116 v 1.86116 l 7.49938,-0.5474 c 0.21896,-0.16422 0.32844,-0.43792 0.32844,-0.65688 0,-0.2737 -0.0547,-0.49266 -0.32844,-0.71162 -0.49266,0 -0.98532,0.0547 -1.42324,0.0547 -0.87584,0 -1.58746,-0.21896 -1.58746,-1.42324 v -35.581 c 0,-0.93058 0.16422,-1.86116 0.65688,-2.737 -3.0107,0 -5.25504,2.737 -8.10152,2.737 z"
           style="font-size:54.74px;font-family:'Accanthis ADF Std No3';fill:#400000"
           id="path605" />
        <path
           d="m 980.83209,-583.90837 c 2.24434,0 5.52874,2.24434 6.07614,4.3792 l -12.5902,5.80244 c 0,-3.61284 1.53272,-10.18164 6.51406,-10.18164 z m 2.13486,22.38866 c -5.91192,0 -8.53944,-5.63822 -8.64892,-10.45534 l 18.55686,-8.32048 c -2.737,-3.33914 -6.40458,-5.03608 -11.05748,-5.03608 -7.6636,0 -12.53546,6.13088 -12.53546,12.5902 0,6.45932 4.87186,12.5902 12.53546,12.5902 5.80244,0 9.96268,-3.12018 9.96268,-4.1055 0,-0.60214 -0.5474,-1.04006 -1.14954,-1.04006 -0.98532,0 -2.79174,3.77706 -7.6636,3.77706 z"
           style="font-size:54.74px;font-family:'Accanthis ADF Std No3';fill:#400000"
           id="path607" />
        <path
           d="m 1015.2635,-581.00715 c 0.7116,0 2.0254,-0.5474 2.0254,-1.3685 0,-2.29908 -3.0655,-2.95596 -5.0361,-2.95596 -4.1055,0 -7.0067,4.05076 -9.0321,6.8425 v -4.1055 c 0,-0.93058 0.2189,-1.86116 0.6021,-2.737 -2.9559,0 -5.14554,2.737 -8.1015,2.737 l 3.0107,2.737 v 16.422 c 0,1.04006 -0.5474,1.31376 -1.25902,1.3685 h -1.75168 c -0.21896,0.2737 -0.21896,0.5474 -0.21896,0.76636 0,0.16422 0.10948,0.38318 0.21896,0.60214 h 10.4553 c 0.1643,-0.16422 0.2737,-0.43792 0.2737,-0.65688 0,-0.2737 -0.055,-0.49266 -0.2737,-0.71162 h -1.7516 c -0.7117,0 -1.2043,-0.32844 -1.2043,-1.3685 v -14.5061 c 1.6969,-1.58746 5.3098,-4.6529 7.9373,-4.6529 2.6822,0 1.9159,1.58746 4.1055,1.58746 z"
           style="font-size:54.74px;font-family:'Accanthis ADF Std No3';fill:#400000"
           id="path609" />
      </g>
      <g
         aria-label="evoting for democracy"
         transform="scale(1,-1)"
         id="text449"
         style="font-size:19.713px;line-height:125%;letter-spacing:0px;word-spacing:0px;stroke-width:0.49283px">
        <path
           d="m 755.64162,-549.51713 c 0.80824,0 1.99102,0.80824 2.18815,1.57704 l -4.53399,2.08958 c 0,-1.30106 0.55196,-3.66662 2.34584,-3.66662 z m 0.76881,8.06262 c -2.129,0 -3.07523,-2.03044 -3.11465,-3.76518 l 6.6827,-2.99638 c -0.98565,-1.20249 -2.30642,-1.81359 -3.98202,-1.81359 -2.75982,0 -4.51428,2.20785 -4.51428,4.53399 0,2.32613 1.75446,4.53399 4.51428,4.53399 2.08958,0 3.58776,-1.12364 3.58776,-1.47848 0,-0.21684 -0.19713,-0.37455 -0.41397,-0.37455 -0.35483,0 -1.00536,1.3602 -2.75982,1.3602 z"
           style="font-family:'Accanthis ADF Std No3';fill:#400000"
           id="path612" />
        <path
           d="m 765.34036,-541.15881 h 1.12364 l 4.08059,-8.1809 h 0.53225 c 0.0394,-0.0788 0.0789,-0.17742 0.11828,-0.25627 l -0.11828,-0.23655 h -3.01609 c -0.0591,0.0591 -0.0986,0.1577 -0.0986,0.23655 0,0.0986 0.0197,0.17742 0.0986,0.25627 h 0.68996 c 0.3154,0 0.59139,0.15771 0.59139,0.53225 l -3.01609,6.24902 -3.35121,-6.28844 c 0,-0.35484 0.17741,-0.4534 0.41397,-0.49283 h 0.67024 c 0.0986,-0.0788 0.11828,-0.1577 0.11828,-0.25627 0,-0.0788 -0.0394,-0.17741 -0.11828,-0.23655 h -3.76518 l -0.0986,0.23655 c 0.0197,0.0789 0.0591,0.17742 0.0986,0.25627 h 0.53225 z"
           style="font-family:'Accanthis ADF Std No3';fill:#400000"
           id="path614" />
        <path
           d="m 775.65023,-549.51713 c 2.75982,0 3.09494,2.50356 3.09494,4.55371 0,1.32077 -0.59139,3.4892 -2.32613,3.4892 -2.5824,0 -3.07523,-2.56269 -3.07523,-4.49457 0,-1.28134 0.6111,-3.54834 2.30642,-3.54834 z m 0.35484,-0.51253 c -2.75982,0 -4.51428,2.20785 -4.51428,4.53399 0,2.32613 1.75446,4.53399 4.51428,4.53399 2.77953,0 4.53399,-2.20786 4.53399,-4.53399 0,-2.32614 -1.75446,-4.53399 -4.53399,-4.53399 z"
           style="font-family:'Accanthis ADF Std No3';fill:#400000"
           id="path616" />
        <path
           d="m 788.30597,-542.47958 c 0,-0.11828 -0.0788,-0.21685 -0.19713,-0.23656 h -0.0591 c -0.49283,0 -0.68996,1.26163 -1.89245,1.26163 -1.57704,0 -1.59675,-1.71503 -1.59675,-2.77953 v -5.10567 h 1.93187 l 0.37455,-0.49282 h -2.30642 v -2.16843 c 0,-0.31541 0.0197,-0.70967 0.21684,-0.98565 -0.98565,0.13799 -1.24192,3.15408 -2.60212,3.15408 l -0.39426,0.49282 h 1.16307 v 5.44079 c 0,1.65589 0.84766,2.93724 2.79925,2.93724 2.10929,0 2.56269,-1.5179 2.56269,-1.5179 z"
           style="font-family:'Accanthis ADF Std No3';fill:#400000"
           id="path618" />
        <path
           d="m 791.04607,-554.42566 c -0.63081,0 -1.08421,0.47311 -1.08421,1.00536 0,0.55196 0.4534,0.98565 1.08421,0.98565 0.57168,0 1.08422,-0.43369 1.08422,-0.98565 0,-0.55196 -0.49283,-1.00536 -1.08422,-1.00536 z m 1.00536,4.396 c -1.0645,0 -1.85302,0.98565 -2.91752,0.98565 l 1.08422,0.98565 v 5.9139 c 0,0.37454 -0.19713,0.47311 -0.4534,0.49282 h -0.63082 c -0.0788,0.0986 -0.0788,0.19713 -0.0788,0.27598 0,0.0591 0.0394,0.13799 0.0788,0.21685 h 3.76518 c 0.0591,-0.0591 0.0986,-0.15771 0.0986,-0.23656 0,-0.0986 -0.0197,-0.17742 -0.0986,-0.25627 h -0.63081 c -0.25627,0 -0.43369,-0.11828 -0.43369,-0.49282 v -6.89955 c 0,-0.33512 0.0788,-0.67025 0.21684,-0.98565 z"
           style="font-family:'Accanthis ADF Std No3';fill:#400000"
           id="path620" />
        <path
           d="m 797.05853,-550.02966 c -1.0645,0 -1.85302,0.98565 -2.91752,0.98565 l 1.08421,0.98565 v 5.9139 c 0,0.37454 -0.19713,0.47311 -0.4534,0.49282 h -0.63081 c -0.0789,0.0986 -0.0789,0.19713 -0.0789,0.27598 0,0.0591 0.0394,0.13799 0.0789,0.21685 h 3.76518 c 0.0591,-0.0591 0.0986,-0.15771 0.0986,-0.23656 0,-0.0986 -0.0197,-0.17742 -0.0986,-0.25627 h -0.63082 c -0.25627,0 -0.43368,-0.11828 -0.43368,-0.49282 v -5.22395 c 0.6111,-0.57168 1.91216,-1.6756 2.85838,-1.6756 1.10393,0 1.20249,1.2222 1.20249,1.9713 v 4.92825 c 0,0.37454 -0.17741,0.47311 -0.45339,0.49282 h -0.61111 c -0.0788,0.0788 -0.0986,0.15771 -0.0986,0.23656 -0.0197,0.0788 0.0197,0.1577 0.0986,0.25627 h 3.74547 c 0.0591,-0.0591 0.13799,-0.15771 0.13799,-0.23656 0,-0.0986 -0.0197,-0.17742 -0.13799,-0.25627 h -0.63081 c -0.25627,0 -0.43369,-0.11828 -0.43369,-0.49282 v -5.42108 c 0,-1.30106 -0.92651,-2.46412 -2.4247,-2.46412 -1.45876,0 -2.52326,1.47847 -3.25264,2.46412 v -1.47847 c 0,-0.33512 0.0788,-0.67025 0.21684,-0.98565 z"
           style="font-family:'Accanthis ADF Std No3';fill:#400000"
           id="path622" />
        <path
           d="m 805.85051,-539.06924 c 0,-0.68995 0.21684,-1.71503 0.86737,-2.16843 0.41397,0.0986 0.86737,0.11828 1.3602,0.11828 h 0.67024 c 1.45876,0 2.83867,0.13799 2.83867,2.22757 0,1.53762 -1.93187,1.99101 -3.27236,1.99101 -1.28134,0 -2.46412,-0.98565 -2.46412,-2.16843 z m 3.01609,-10.96042 c -1.71503,0 -3.58777,1.41933 -3.58777,3.09494 0,1.24192 0.43369,2.24728 1.73475,2.7401 l -2.16843,0.9068 c 0.0197,0.78852 0.41397,1.45876 1.16306,1.8136 -0.51254,0.25627 -1.77417,1.53761 -1.77417,2.08958 0,1.95158 1.75446,3.15408 3.7849,3.15408 2.36556,0 4.86911,-0.70967 4.86911,-3.27236 0,-1.5179 -1.45876,-2.93724 -3.13437,-2.93724 -0.23655,0 -0.84766,0.0591 -1.49819,0.0591 -0.94622,0 -1.95158,-0.11828 -1.95158,-0.72938 0,-0.49283 0.98565,-0.70967 1.39962,-0.88709 0.35483,0.0986 0.78852,0.11828 1.18278,0.11828 2.08958,0 3.58777,-1.47847 3.58777,-3.43006 0,-0.41397 -0.0591,-0.82795 -0.19713,-1.22221 1.08421,0 1.83331,-0.78852 1.83331,-1.77417 0,-0.45339 -0.35484,-1.18278 -0.94623,-1.18278 -0.49282,0 -0.80823,0.35484 -0.80823,0.78852 0,0.4534 0.35483,0.7491 0.80823,0.9068 v 0.0394 c 0,0.39426 -0.27598,0.59139 -0.68995,0.59139 -0.4534,0 -0.96594,-0.21684 -1.55733,-0.43369 -0.6111,-0.21684 -1.28135,-0.43368 -2.05015,-0.43368 z m -1.9713,3.07522 c 0,-1.02507 0.68995,-2.44441 1.99101,-2.44441 1.22221,0 2.03044,1.59676 2.03044,2.54298 0,1.02508 -0.67024,2.40499 -1.9713,2.40499 -1.22221,0 -2.05015,-1.55733 -2.05015,-2.50356 z"
           style="font-family:'Accanthis ADF Std No3';fill:#400000"
           id="path624" />
        <path
           d="m 829.01324,-554.38624 c 0.25627,0 0.74909,-0.19713 0.74909,-0.49282 0,-0.88709 -1.08421,-1.0645 -1.83331,-1.0645 -2.56269,0 -4.92825,3.60748 -4.92825,5.71677 v 0.39426 h -0.76881 l -0.39426,0.49282 h 1.16307 v 7.19525 c 0,0.37454 -0.19713,0.47311 -0.4534,0.49282 h -0.63081 c -0.0789,0.0986 -0.0789,0.19713 -0.0789,0.27598 0,0.0591 0.0394,0.13799 0.0789,0.21685 h 3.76518 c 0.0591,-0.0591 0.0986,-0.15771 0.0986,-0.23656 0,-0.0986 -0.0197,-0.17742 -0.0986,-0.25627 h -0.63082 c -0.25627,0 -0.43368,-0.11828 -0.43368,-0.49282 v -7.19525 h 1.37991 l 0.39426,-0.49282 h -1.77417 v -2.16843 c 0,-1.61647 1.0645,-2.95695 2.91752,-2.95695 1.00536,0 0.70967,0.57167 1.47848,0.57167 z"
           style="font-family:'Accanthis ADF Std No3';fill:#400000"
           id="path626" />
        <path
           d="m 831.20133,-549.51713 c 2.75982,0 3.09494,2.50356 3.09494,4.55371 0,1.32077 -0.59139,3.4892 -2.32613,3.4892 -2.5824,0 -3.07523,-2.56269 -3.07523,-4.49457 0,-1.28134 0.6111,-3.54834 2.30642,-3.54834 z m 0.35483,-0.51253 c -2.75981,0 -4.51427,2.20785 -4.51427,4.53399 0,2.32613 1.75446,4.53399 4.51427,4.53399 2.77954,0 4.53399,-2.20786 4.53399,-4.53399 0,-2.32614 -1.75445,-4.53399 -4.53399,-4.53399 z"
           style="font-family:'Accanthis ADF Std No3';fill:#400000"
           id="path628" />
        <path
           d="m 844.6653,-548.47234 c 0.25627,0 0.72938,-0.19713 0.72938,-0.49282 0,-0.82795 -1.10392,-1.0645 -1.81359,-1.0645 -1.47848,0 -2.52327,1.45876 -3.25265,2.46412 v -1.47847 c 0,-0.33512 0.0788,-0.67025 0.21685,-0.98565 -1.06451,0 -1.85303,0.98565 -2.91753,0.98565 l 1.08422,0.98565 v 5.9139 c 0,0.37454 -0.19713,0.47311 -0.4534,0.49282 h -0.63082 c -0.0788,0.0986 -0.0788,0.19713 -0.0788,0.27598 0,0.0591 0.0394,0.13799 0.0788,0.21685 h 3.76518 c 0.0591,-0.0591 0.0986,-0.15771 0.0986,-0.23656 0,-0.0986 -0.0197,-0.17742 -0.0986,-0.25627 h -0.63081 c -0.25627,0 -0.43369,-0.11828 -0.43369,-0.49282 v -5.22395 c 0.61111,-0.57168 1.91216,-1.6756 2.85839,-1.6756 0.96593,0 0.68995,0.57167 1.47847,0.57167 z"
           style="font-family:'Accanthis ADF Std No3';fill:#400000"
           id="path630" />
        <path
           d="m 860.47507,-548.55119 v 5.42108 c 0,1.10392 -1.10393,1.65589 -2.18814,1.65589 -2.60212,0 -3.07523,-2.54298 -3.07523,-4.49457 0,-1.30105 1.04479,-3.54834 2.72039,-3.54834 0.94623,0 1.89245,0.39426 2.54298,0.96594 z m -1.0645,-6.40672 1.0645,0.98565 v 4.92825 c -0.57168,-0.53225 -1.77417,-0.98565 -2.60212,-0.98565 -2.7401,0 -4.51427,2.20785 -4.51427,4.53399 0,2.32613 1.81359,4.53399 4.51427,4.53399 1.06451,0 1.71503,-0.19713 2.60212,-0.67025 v 0.67025 l 2.70068,-0.19713 c 0.0788,-0.0591 0.11828,-0.15771 0.11828,-0.23656 0,-0.0986 -0.0197,-0.17742 -0.11828,-0.25627 -0.17742,0 -0.35483,0.0197 -0.51254,0.0197 -0.31541,0 -0.57167,-0.0788 -0.57167,-0.51253 v -12.81345 c 0,-0.33512 0.0591,-0.67024 0.23655,-0.98565 -1.08421,0 -1.89245,0.98565 -2.91752,0.98565 z"
           style="font-family:'Accanthis ADF Std No3';fill:#400000"
           id="path632" />
        <path
           d="m 868.73479,-549.51713 c 0.80824,0 1.99102,0.80824 2.18815,1.57704 l -4.53399,2.08958 c 0,-1.30106 0.55196,-3.66662 2.34584,-3.66662 z m 0.76881,8.06262 c -2.129,0 -3.07523,-2.03044 -3.11465,-3.76518 l 6.6827,-2.99638 c -0.98565,-1.20249 -2.30642,-1.81359 -3.98202,-1.81359 -2.75982,0 -4.51428,2.20785 -4.51428,4.53399 0,2.32613 1.75446,4.53399 4.51428,4.53399 2.08958,0 3.58776,-1.12364 3.58776,-1.47848 0,-0.21684 -0.19713,-0.37455 -0.41397,-0.37455 -0.35483,0 -1.00536,1.3602 -2.75982,1.3602 z"
           style="font-family:'Accanthis ADF Std No3';fill:#400000"
           id="path634" />
        <path
           d="m 877.01423,-550.02966 c -1.06451,0 -1.85303,0.98565 -2.91753,0.98565 l 1.08422,0.98565 v 5.9139 c 0,0.37454 -0.19713,0.47311 -0.4534,0.49282 h -0.63082 c -0.0789,0.0986 -0.0789,0.19713 -0.0789,0.27598 0,0.0591 0.0394,0.13799 0.0789,0.21685 h 3.76519 c 0.0591,-0.0591 0.0986,-0.15771 0.0986,-0.23656 0,-0.0986 -0.0197,-0.17742 -0.0986,-0.25627 h -0.63082 c -0.25627,0 -0.43369,-0.11828 -0.43369,-0.49282 v -5.22395 c 0.61111,-0.57168 1.91216,-1.6756 2.85839,-1.6756 1.10393,0 1.20249,1.2222 1.20249,1.9713 v 4.92825 c 0,0.37454 -0.17742,0.47311 -0.4534,0.49282 h -0.6111 c -0.0788,0.0788 -0.0986,0.15771 -0.0986,0.23656 -0.0197,0.0788 0.0197,0.1577 0.0986,0.25627 h 3.74547 c 0.0591,-0.0591 0.13799,-0.15771 0.13799,-0.23656 0,-0.0986 -0.0197,-0.17742 -0.13799,-0.25627 h -0.63082 c -0.25627,0 -0.43368,-0.11828 -0.43368,-0.49282 v -5.20424 c 0.6111,-0.55196 1.95158,-1.69531 2.89781,-1.69531 1.08421,0 1.18278,1.2222 1.18278,1.9713 v 4.92825 c 0,0.37454 -0.17742,0.47311 -0.4534,0.49282 h -0.6111 c -0.0591,0.0788 -0.0789,0.15771 -0.0789,0.23656 -0.0197,0.0788 0.0197,0.1577 0.0789,0.25627 h 3.78489 c 0.0591,-0.0591 0.0986,-0.15771 0.0986,-0.23656 0,-0.0986 -0.0197,-0.17742 -0.0986,-0.25627 h -0.67024 c -0.25627,0 -0.43369,-0.11828 -0.43369,-0.49282 v -5.42108 c 0,-1.30106 -0.90679,-2.46412 -2.4247,-2.46412 -1.41933,0 -2.56269,1.47847 -3.27235,2.44441 0,-1.26163 -0.98565,-2.44441 -2.4247,-2.44441 -1.45876,0 -2.52327,1.47847 -3.25265,2.46412 v -1.47847 c 0,-0.33512 0.0789,-0.67025 0.21685,-0.98565 z"
           style="font-family:'Accanthis ADF Std No3';fill:#400000"
           id="path636" />
        <path
           d="m 894.77561,-549.51713 c 2.75982,0 3.09494,2.50356 3.09494,4.55371 0,1.32077 -0.59139,3.4892 -2.32613,3.4892 -2.58241,0 -3.07523,-2.56269 -3.07523,-4.49457 0,-1.28134 0.6111,-3.54834 2.30642,-3.54834 z m 0.35483,-0.51253 c -2.75982,0 -4.51427,2.20785 -4.51427,4.53399 0,2.32613 1.75445,4.53399 4.51427,4.53399 2.77954,0 4.53399,-2.20786 4.53399,-4.53399 0,-2.32614 -1.75445,-4.53399 -4.53399,-4.53399 z"
           style="font-family:'Accanthis ADF Std No3';fill:#400000"
           id="path638" />
        <path
           d="m 906.288,-541.45451 c -2.56269,0 -3.07523,-2.5824 -3.07523,-4.51428 0,-1.24191 0.57167,-3.54834 2.30642,-3.54834 0.92651,0 1.93187,1.2025 2.75982,1.2025 0.33512,0 0.65053,-0.27598 0.65053,-0.59139 0,-0.94623 -2.38528,-1.12364 -3.05552,-1.12364 -2.75982,0 -4.51427,2.20785 -4.51427,4.53399 0,2.32613 1.81359,4.53399 4.51427,4.53399 2.18815,0 3.27236,-1.26164 3.27236,-1.57704 0,-0.19713 -0.0394,-0.27599 -0.13799,-0.27599 -0.33512,0 -1.3602,1.3602 -2.72039,1.3602 z"
           style="font-family:'Accanthis ADF Std No3';fill:#400000"
           id="path640" />
        <path
           d="m 917.28785,-548.47234 c 0.25626,0 0.72938,-0.19713 0.72938,-0.49282 0,-0.82795 -1.10393,-1.0645 -1.8136,-1.0645 -1.47847,0 -2.52326,1.45876 -3.25264,2.46412 v -1.47847 c 0,-0.33512 0.0788,-0.67025 0.21684,-0.98565 -1.0645,0 -1.85302,0.98565 -2.91753,0.98565 l 1.08422,0.98565 v 5.9139 c 0,0.37454 -0.19713,0.47311 -0.4534,0.49282 h -0.63082 c -0.0788,0.0986 -0.0788,0.19713 -0.0788,0.27598 0,0.0591 0.0394,0.13799 0.0788,0.21685 h 3.76519 c 0.0591,-0.0591 0.0986,-0.15771 0.0986,-0.23656 0,-0.0986 -0.0197,-0.17742 -0.0986,-0.25627 h -0.63082 c -0.25627,0 -0.43368,-0.11828 -0.43368,-0.49282 v -5.22395 c 0.6111,-0.57168 1.91216,-1.6756 2.85838,-1.6756 0.96594,0 0.68996,0.57167 1.47848,0.57167 z"
           style="font-family:'Accanthis ADF Std No3';fill:#400000"
           id="path642" />
        <path
           d="m 924.22678,-542.83442 c 0,0.72938 -1.47847,1.37991 -2.14872,1.37991 -1.08421,0 -1.87273,-0.67024 -1.87273,-1.69532 0,-0.49282 0.11828,-1.24192 0.84766,-1.5179 l 3.17379,-1.12364 z m -2.50355,1.87274 c 0.94622,0 1.93187,-0.37455 2.50355,-1.10393 v 0.0197 c 0,0.63082 0.65053,1.08422 1.30106,1.08422 0.53225,0 1.26163,-0.17742 1.28134,-0.78852 -0.11827,0.13799 -0.25627,0.27598 -0.4534,0.27598 -0.51253,0 -0.53225,-0.78852 -0.53225,-1.08422 v -4.90853 c 0,-2.08958 -1.95158,-2.56269 -3.84403,-2.56269 -0.88709,0 -2.89781,0.65053 -2.89781,1.6756 0,0.2957 0.25627,0.57168 0.6111,0.57168 0.76881,0 0.94622,-1.73475 2.62183,-1.73475 1.49819,0 1.91216,1.30106 1.91216,2.44442 v 0.78852 l -4.27772,1.49818 c -0.9068,0.31541 -1.45876,0.94623 -1.45876,1.79389 0,1.57704 1.73474,2.03044 3.23293,2.03044 z"
           style="font-family:'Accanthis ADF Std No3';fill:#400000"
           id="path644" />
        <path
           d="m 933.05817,-541.45451 c -2.56269,0 -3.07523,-2.5824 -3.07523,-4.51428 0,-1.24191 0.57168,-3.54834 2.30642,-3.54834 0.92651,0 1.93187,1.2025 2.75982,1.2025 0.33512,0 0.65053,-0.27598 0.65053,-0.59139 0,-0.94623 -2.38527,-1.12364 -3.05552,-1.12364 -2.75982,0 -4.51427,2.20785 -4.51427,4.53399 0,2.32613 1.81359,4.53399 4.51427,4.53399 2.18815,0 3.27236,-1.26164 3.27236,-1.57704 0,-0.19713 -0.0394,-0.27599 -0.13799,-0.27599 -0.33512,0 -1.3602,1.3602 -2.72039,1.3602 z"
           style="font-family:'Accanthis ADF Std No3';fill:#400000"
           id="path646" />
        <path
           d="m 941.61361,-541.19824 -0.80824,1.73474 c -0.43368,0.94623 -2.32613,2.30643 -2.32613,2.7204 0,0.29569 0.33512,0.51254 0.63081,0.51254 0.82795,0 1.39963,-0.76881 1.69532,-1.37991 l 5.49993,-11.07871 c 0.29569,-0.57168 0.41397,-0.65053 1.08421,-0.65053 0.0394,-0.0788 0.0591,-0.0591 0.11828,-0.25627 0,-0.11828 -0.0986,-0.19713 -0.11828,-0.23655 h -3.21321 c -0.0591,0.0591 -0.17742,0.1577 -0.17742,0.23655 0,0.0986 0.0986,0.17742 0.17742,0.25627 h 0.67024 c 0.35483,0 0.55196,0.11828 0.55196,0.35484 0,0.0788 -0.0197,0.17741 -0.0788,0.29569 l -2.79925,5.67734 -3.23293,-5.83504 c -0.0197,-0.0591 -0.0197,-0.11828 -0.0197,-0.15771 0,-0.21684 0.17742,-0.31541 0.51254,-0.33512 h 0.59139 c 0.0986,-0.0788 0.11827,-0.1577 0.11827,-0.25627 0,-0.0788 -0.0394,-0.17741 -0.11827,-0.23655 h -3.76519 c -0.0394,0.0591 -0.0788,0.1577 -0.0986,0.23655 0.0197,0.0789 0.0197,0.19713 0.0986,0.25627 h 0.53225 z"
           style="font-family:'Accanthis ADF Std No3';fill:#400000"
           id="path648" />
      </g>
    </g>
  </g>
</svg>
